<?xml version="1.0" encoding="UTF-8"?><svg xmlns="http://www.w3.org/2000/svg" xmlns:xlink="http://www.w3.org/1999/xlink" height="441.6" preserveAspectRatio="xMidYMid meet" version="1.0" viewBox="-11.9 -9.2 519.2 441.6" width="519.2" zoomAndPan="magnify"><g id="change1_1"><path d="M247.5111237,432.3951721c-3.3254547-0.0218811-5.4836731-1.8960571-5.9779968-2.3486633L49.4926033,238.0055084 c-45.7072258-41.3626556-61.4272156-104.4067078-40.125-156.7470703 C34.1938477,20.2594013,96.8671112,4.342566,101.087326,3.3575578 C154.937912-9.2112894,212.4891815,14.2017965,247.5692596,61.9674225 c35.0815582-47.7661133,92.6430817-71.1767578,146.4819489-58.6098633 c2.7070312,0.6313477,66.6054688,16.1791992,91.7207031,77.9008789 c21.4648438,52.7519531,5.3369141,115.71875-40.1259766,156.7470703L253.6068573,430.0465088 C253.1249847,430.4876404,250.9112854,432.4175415,247.5111237,432.3951721z M104.4960175,17.9649792 c-3.5534897,0.8314857-59.2169228,14.8369961-81.2348633,68.9467773 c-19.1147461,46.9750977-4.480957,103.2680664,36.4145508,140.078125l0.2856445,0.2705078L247.5697479,414.869751 l187.7470856-187.7480316l0.1464844-0.1318359c40.8945312-36.8100586,55.5283203-93.1030273,36.4140625-140.078125 c-22.2216797-54.6123047-78.8349609-68.3867188-81.234375-68.9467773 C339.6146851,6.0558,284.6693726,30.6964245,253.9056854,79.2760162l-6.3364258,10.0058594l-6.3364258-10.0058594 C210.4731598,30.4022961,155.0694885,6.1312356,104.4960175,17.9649792z" fill="inherit"/></g></svg>